<svg width="62" height="62" viewBox="0 0 62 62" fill="none" xmlns="http://www.w3.org/2000/svg">
<path d="M12.4561 14.2888H30.1317" stroke="#EF60A0" stroke-width="1.59191" stroke-linecap="round" stroke-linejoin="round"/>
<path d="M12.4561 25.6512H30.1317" stroke="#EF60A0" stroke-width="1.59191" stroke-linecap="round" stroke-linejoin="round"/>
<path d="M12.4561 37.0145H22.5564" stroke="#EF60A0" stroke-width="1.59191" stroke-linecap="round" stroke-linejoin="round"/>
<path fill-rule="evenodd" clip-rule="evenodd" d="M46.1939 56.2665C45.9558 56.515 45.6265 56.6555 45.2823 56.6555C44.9382 56.6555 44.6089 56.515 44.3708 56.2665L32.3639 43.7471C30.0389 41.4212 29.4622 37.8688 30.9322 34.9269C32.0309 32.7305 34.1183 31.196 36.5426 30.8028C38.9668 30.4096 41.4322 31.2056 43.1688 32.9422L45.2773 35.0506L47.3857 32.9422C49.1218 31.2056 51.587 30.4095 54.0109 30.8028C56.4347 31.196 58.5218 32.7305 59.6198 34.9269C61.0896 37.8684 60.5141 41.4202 58.1906 43.7471L46.1939 56.2665Z" fill="#EF60A0"/>
<path d="M40.2319 22.4469V7.37229C40.2319 5.61392 38.8065 4.18848 37.0481 4.18848H5.53929C3.78091 4.18848 2.35547 5.61392 2.35547 7.3723V46.4534C2.35547 48.2116 3.78063 49.637 5.53882 49.6372L26.3439 49.6402" stroke="#EF60A0" stroke-width="1.59191" stroke-linecap="round" stroke-linejoin="round"/>
</svg>
