<svg width="62" height="62" viewBox="0 0 62 62" fill="none" xmlns="http://www.w3.org/2000/svg">
<path d="M12.6299 43.0555L22.4846 20.0107L21.6825 42.6791" stroke="#EF60A0" stroke-width="1.59191" stroke-linecap="round" stroke-linejoin="round"/>
<path fill-rule="evenodd" clip-rule="evenodd" d="M22.4845 21.0847C16.9943 26.1477 11.5041 26.3392 5.22141 25.9414C5.05129 25.9303 4.89723 25.8082 4.81247 25.6175C4.72771 25.4267 4.7239 25.1934 4.80235 24.9982C8.45325 15.8869 18.5336 16.9395 22.4845 18.9795V21.0847Z" fill="#EF60A0"/>
<path fill-rule="evenodd" clip-rule="evenodd" d="M10.9819 13.9797C10.7958 13.8836 10.6698 13.654 10.6594 13.3923C10.649 13.1307 10.7562 12.8852 10.9337 12.7643C16.6467 8.88956 22.4843 14.8422 22.4843 20.0107L10.9819 13.9797Z" fill="#EF60A0"/>
<path fill-rule="evenodd" clip-rule="evenodd" d="M21.499 21.0157C25.3668 26.813 32.1391 26.271 38.4644 25.8094C38.7502 25.787 39.0063 25.5808 39.1409 25.2649C39.2754 24.9489 39.269 24.5683 39.1241 24.2596C35.2382 15.9664 25.4064 16.9969 21.499 18.9548" fill="#EF60A0"/>
<path fill-rule="evenodd" clip-rule="evenodd" d="M33.0579 13.8932C33.2107 13.8128 33.3144 13.6227 33.3239 13.4056C33.3335 13.1885 33.2471 12.9837 33.1024 12.8805C27.3929 8.77312 21.499 14.7926 21.499 20.0107L33.0579 13.8932Z" fill="#EF60A0"/>
<path d="M18.5425 38.2041H21.4989" stroke="#EF60A0" stroke-width="1.59191" stroke-linecap="round" stroke-linejoin="round"/>
<path d="M19.5283 33.3525H21.4993" stroke="#EF60A0" stroke-width="1.59191" stroke-linecap="round" stroke-linejoin="round"/>
<path d="M58.9464 49.7482C52.9479 50.7271 49.2049 46.0117 49.2049 46.0117V46.0117C47.32 48.3687 44.0573 49.8257 40.5167 49.8915C37.0016 49.7586 33.777 48.3178 31.8332 46.0117V46.0117C29.9468 48.3674 26.685 49.824 23.145 49.8915C19.6333 49.7562 16.413 48.3157 14.4712 46.0117V46.0117C14.4712 46.0117 9.64598 50.8063 3.76025 49.8199" stroke="#EF60A0" stroke-width="1.59191" stroke-linecap="round" stroke-linejoin="round"/>
<path d="M58.9464 56.6456C52.9479 57.6246 49.2049 52.9092 49.2049 52.9092V52.9092C47.32 55.2661 44.0573 56.7231 40.5167 56.789C37.0016 56.656 33.777 55.2153 31.8332 52.9092V52.9092C29.9468 55.2649 26.685 56.7215 23.145 56.789C19.6333 56.6537 16.413 55.2132 14.4712 52.9092V52.9092C14.4712 52.9092 9.64598 57.7038 3.76025 56.7173" stroke="#EF60A0" stroke-width="1.59191" stroke-linecap="round" stroke-linejoin="round"/>
<path d="M11.644 38.127C8.75592 39.0385 6.08608 40.3735 3.76025 42.0688" stroke="#EF60A0" stroke-width="1.59191" stroke-linecap="round" stroke-linejoin="round"/>
<path d="M58.9464 42.0694C54.247 38.5937 43.3219 36.1566 30.592 36.1566C29.517 36.1566 26.523 36.1229 25.4775 36.1566" stroke="#EF60A0" stroke-width="1.59191" stroke-linecap="round" stroke-linejoin="round"/>
<path d="M49.1672 7.26355V5.60742" stroke="#EF60A0" stroke-width="1.59191" stroke-linecap="round" stroke-linejoin="round"/>
<path d="M54.3916 9.44957L55.5627 8.27734" stroke="#EF60A0" stroke-width="1.59191" stroke-linecap="round" stroke-linejoin="round"/>
<path d="M56.6191 14.7146H58.2742" stroke="#EF60A0" stroke-width="1.59191" stroke-linecap="round" stroke-linejoin="round"/>
<path d="M54.3916 19.9873L55.5627 21.1584" stroke="#EF60A0" stroke-width="1.59191" stroke-linecap="round" stroke-linejoin="round"/>
<path d="M49.1672 22.167V23.8231" stroke="#EF60A0" stroke-width="1.59191" stroke-linecap="round" stroke-linejoin="round"/>
<path d="M43.8533 19.9873L42.6821 21.1584" stroke="#EF60A0" stroke-width="1.59191" stroke-linecap="round" stroke-linejoin="round"/>
<path d="M41.7157 14.7146H40.0596" stroke="#EF60A0" stroke-width="1.59191" stroke-linecap="round" stroke-linejoin="round"/>
<path d="M43.8533 9.44957L42.6821 8.27734" stroke="#EF60A0" stroke-width="1.59191" stroke-linecap="round" stroke-linejoin="round"/>
<path fill-rule="evenodd" clip-rule="evenodd" d="M49.1671 10.6045C51.454 10.6045 53.3069 12.4585 53.3069 14.7443C53.3069 17.0311 51.454 18.8841 49.1671 18.8841C46.8803 18.8841 45.0273 17.0311 45.0273 14.7443C45.0273 12.4585 46.8803 10.6045 49.1671 10.6045Z" fill="#EF60A0"/>
</svg>
