<svg width="32" height="32" viewBox="0 0 32 32" fill="none" xmlns="http://www.w3.org/2000/svg">
<path d="M13.3355 8.42389C12.9708 4.22913 8.59464 2.17088 8.40944 2.08687C8.23631 2.00549 8.04228 1.97948 7.85383 2.01241C2.80179 2.8506 2.04188 5.79094 2.01133 5.91314C1.96977 6.08342 1.97638 6.26191 2.03042 6.42865C8.05622 25.1247 20.5794 28.5901 24.6959 29.7299C25.0128 29.8177 25.2744 29.8884 25.473 29.9533C25.6996 30.0273 25.9458 30.013 26.1622 29.9132C26.2883 29.8559 29.263 28.4545 29.9904 23.8836C30.0227 23.6841 29.9906 23.4794 29.8988 23.2994C29.8338 23.1733 28.2778 20.212 23.9627 19.1657C23.8163 19.1282 23.663 19.1269 23.516 19.1619C23.369 19.1968 23.2327 19.2669 23.1188 19.3662C21.7575 20.5289 19.8768 21.7681 19.0653 21.896C13.6257 19.2363 10.588 14.1327 10.4734 13.1647C10.4066 12.6206 11.6534 10.7093 13.0873 9.15515C13.1774 9.05734 13.246 8.94174 13.2888 8.8158C13.3315 8.68985 13.3474 8.55635 13.3355 8.42389Z" fill="white"/>
</svg>
