<svg width="146" height="146" viewBox="0 0 146 146" fill="none" xmlns="http://www.w3.org/2000/svg">
<path d="M137.202 46.5992L137.781 45.2745L136.424 44.7774L124.693 40.4814L125.911 28.0502L126.052 26.6114L124.608 26.5581L112.124 26.0976L109.44 13.8977L109.129 12.486L107.739 12.8817L95.7252 16.301L89.4026 5.52813L88.6709 4.28137L87.4709 5.08744L77.1016 12.0526L67.7594 3.76044L66.6783 2.80078L65.786 3.93825L58.0771 13.7661L46.63 8.76676L45.3053 8.18822L44.8082 9.54555L40.5122 21.2749L28.0808 20.0579L26.6421 19.9171L26.5888 21.3616L26.1284 33.8449L13.9285 36.5293L12.5167 36.8399L12.9124 38.2302L16.3318 50.2441L5.55889 56.5666L4.31213 57.2983L5.1182 58.4984L12.0834 68.8677L3.79121 78.2098L2.83154 79.291L3.96901 80.1832L13.7968 87.8922L8.79752 99.3392L8.21898 100.664L9.57631 101.161L21.3056 105.457L20.0887 117.888L19.9478 119.327L21.3924 119.38L33.8756 119.841L36.56 132.041L36.8707 133.453L38.2611 133.057L50.2748 129.636L56.5973 140.41L57.329 141.657L58.5291 140.851L68.8984 133.886L78.2406 142.178L79.3217 143.138L80.214 142L87.9229 132.172L99.37 137.172L100.695 137.75L101.192 136.393L105.488 124.662L117.919 125.881L119.358 126.022L119.411 124.577L119.872 112.094L132.071 109.409L133.483 109.099L133.088 107.708L129.667 95.6944L140.441 89.3719L141.688 88.6402L140.882 87.4401L133.917 77.0708L142.209 67.7287L143.168 66.6475L142.031 65.7553L132.203 58.0463L137.202 46.5992Z" fill="#EF60A0" stroke="#1F1F1F" stroke-width="2.72071"/>
</svg>
