<svg width="98" height="98" viewBox="0 0 98 98" fill="none" xmlns="http://www.w3.org/2000/svg">
<path d="M89.0603 39.4312L95.9207 44.8131L90.133 51.3336L89.7101 51.81L90.0653 52.3388L94.9264 59.5758L87.407 63.9888L86.8576 64.3112L87.032 64.9238L89.419 73.3094L80.9033 75.1825L80.2811 75.3194L80.2577 75.956L79.9371 84.6687L71.2597 83.8192L70.6258 83.7572L70.4068 84.3553L67.4086 92.5425L59.4194 89.0525L58.8357 88.7975L58.4425 89.2987L53.0606 96.1591L46.5401 90.3714L46.0637 89.9485L45.5349 90.3037L38.2979 95.1648L33.8849 87.6454L33.5625 87.096L32.9499 87.2704L24.5643 89.6574L22.6912 81.1417L22.5543 80.5195L21.9177 80.4961L13.205 80.1755L14.0544 71.4981L14.1165 70.8642L13.5184 70.6452L5.33116 67.647L8.82028 59.6574L9.07518 59.0737L8.57408 58.6806L1.71462 53.299L7.5023 46.7785L7.92515 46.3021L7.56998 45.7733L2.70886 38.5362L10.2283 34.1233L10.7777 33.8009L10.6033 33.1883L8.21626 24.8027L16.7311 22.9293L17.3532 22.7924L17.3767 22.1559L17.6981 13.4434L26.3756 14.2928L27.0095 14.3549L27.2285 13.7568L30.2267 5.56955L38.2163 9.05867L38.8 9.31357L39.1931 8.81247L44.5747 1.95301L51.0952 7.74069L51.5716 8.16355L52.1004 7.80837L59.3375 2.94726L63.7504 10.4667L64.0728 11.0161L64.6854 10.8417L73.071 8.45465L74.9444 16.9695L75.0813 17.5916L75.7178 17.6151L84.4303 17.9365L83.5809 26.614L83.5188 27.2479L84.1169 27.4669L92.3041 30.4651L88.8141 38.4543L88.5591 39.038L89.0603 39.4312Z" fill="#EF60A0" stroke="#1F1F1F" stroke-width="1.6459"/>
</svg>
