<svg width="100" height="99" viewBox="0 0 100 99" fill="none" xmlns="http://www.w3.org/2000/svg">
<path d="M90.9898 39.877L97.9647 45.3488L92.0804 51.9782L91.6504 52.4625L92.0115 53.0001L96.9538 60.358L89.3088 64.8446L88.7503 65.1724L88.9276 65.7953L91.3545 74.3208L82.6965 76.2253L82.064 76.3644L82.0402 77.0116L81.7142 85.8698L72.8919 85.0062L72.2474 84.9431L72.0248 85.5512L68.9766 93.8751L60.8539 90.3269L60.2604 90.0676L59.8607 90.5772L54.3889 97.552L47.7596 91.6677L47.2752 91.2378L46.7376 91.5989L39.3797 96.5412L34.8931 88.8962L34.5653 88.3377L33.9425 88.515L25.4169 90.9419L23.5125 82.2839L23.3733 81.6514L22.7261 81.6275L13.8679 81.3016L14.7315 72.4793L14.7946 71.8348L14.1865 71.6121L5.86258 68.5639L9.40995 60.4409L9.66911 59.8475L9.15964 59.4478L2.18565 53.9763L8.06997 47.3469L8.49989 46.8626L8.13878 46.325L3.1965 38.9671L10.8415 34.4805L11.4 34.1527L11.2227 33.5298L8.79585 25.0042L17.4529 23.0995L18.0853 22.9604L18.1092 22.3132L18.436 13.4553L27.2584 14.3189L27.9029 14.382L28.1256 13.7739L31.1738 5.44997L39.2968 8.99735L39.8902 9.2565L40.2899 8.74704L45.7614 1.77304L52.3908 7.65737L52.8751 8.08728L53.4127 7.72617L60.7706 2.78389L65.2572 10.4289L65.585 10.9874L66.2079 10.8101L74.7335 8.38324L76.6382 17.0403L76.7773 17.6727L77.4245 17.6966L86.2824 18.0234L85.4188 26.8458L85.3557 27.4903L85.9638 27.713L94.2877 30.7612L90.7395 38.8838L90.4802 39.4773L90.9898 39.877Z" fill="#EF60A0" stroke="#1F1F1F" stroke-width="1.67339"/>
</svg>
