<svg width="99" height="99" viewBox="0 0 99 99" fill="none" xmlns="http://www.w3.org/2000/svg">
<path d="M90.4956 39.877L97.4705 45.3488L91.5862 51.9782L91.1563 52.4625L91.5174 53.0001L96.4597 60.358L88.8147 64.8446L88.2561 65.1724L88.4334 65.7953L90.8603 74.3208L82.2024 76.2253L81.5698 76.3644L81.546 77.0116L81.22 85.8698L72.3978 85.0062L71.7533 84.9431L71.5306 85.5512L68.4824 93.8751L60.3598 90.3269L59.7663 90.0676L59.3666 90.5772L53.8948 97.552L47.2654 91.6677L46.7811 91.2378L46.2435 91.5989L38.8856 96.5412L34.399 88.8962L34.0712 88.3377L33.4483 88.515L24.9227 90.9419L23.0183 82.2839L22.8792 81.6514L22.2319 81.6275L13.3738 81.3016L14.2374 72.4793L14.3005 71.8348L13.6924 71.6121L5.36844 68.5639L8.91581 60.4409L9.17497 59.8475L8.6655 59.4478L1.69151 53.9763L7.57583 47.3469L8.00575 46.8626L7.64464 46.325L2.70236 38.9671L10.3474 34.4805L10.9059 34.1527L10.7286 33.5298L8.30171 25.0042L16.9587 23.0995L17.5912 22.9604L17.6151 22.3132L17.9419 13.4553L26.7642 14.3189L27.4087 14.382L27.6314 13.7739L30.6797 5.44997L38.8026 8.99735L39.3961 9.2565L39.7958 8.74704L45.2673 1.77304L51.8966 7.65737L52.381 8.08728L52.9186 7.72617L60.2765 2.78389L64.7631 10.4289L65.0908 10.9874L65.7137 10.8101L74.2394 8.38324L76.144 17.0403L76.2832 17.6727L76.9303 17.6966L85.7883 18.0234L84.9247 26.8458L84.8616 27.4903L85.4697 27.713L93.7935 30.7612L90.2453 38.8838L89.9861 39.4773L90.4956 39.877Z" fill="#EF60A0" stroke="#1F1F1F" stroke-width="1.67339"/>
</svg>
