<svg width="177" height="177" viewBox="0 0 177 177" fill="none" xmlns="http://www.w3.org/2000/svg">
<path d="M162 71.3871L174.504 81.1968L163.955 93.0818L163.184 93.9501L163.832 94.9139L172.692 108.105L158.986 116.148L157.985 116.736L158.303 117.853L162.654 133.137L147.132 136.551L145.998 136.801L145.955 137.961L145.371 153.842L129.555 152.294L128.399 152.18L128 153.271L122.535 168.193L107.973 161.832L106.909 161.368L106.193 162.281L96.3828 174.785L84.4979 164.236L83.6296 163.465L82.6658 164.113L69.4747 172.973L61.4313 159.267L60.8436 158.266L59.727 158.584L44.4425 162.935L41.0283 147.413L40.7789 146.279L39.6185 146.236L23.7378 145.652L25.2861 129.836L25.3992 128.68L24.309 128.281L9.38611 122.816L15.7457 108.254L16.2104 107.19L15.297 106.473L2.79421 96.664L13.3435 84.779L14.1142 83.9107L13.4668 82.9469L4.60643 69.7559L18.3122 61.7125L19.3135 61.1248L18.9957 60.0081L14.6448 44.7236L30.1649 41.3089L31.2988 41.0595L31.3416 39.8993L31.9275 24.019L47.7439 25.5673L48.8994 25.6804L49.2986 24.5902L54.7634 9.66726L69.326 16.0269L70.3899 16.4915L71.1065 15.5782L80.9157 3.07536L92.8006 13.6246L93.6689 14.3954L94.6327 13.748L107.824 4.88758L115.867 18.5933L116.455 19.5947L117.572 19.2768L132.856 14.926L136.271 30.4461L136.52 31.5799L137.68 31.6227L153.561 32.2086L152.012 48.0251L151.899 49.1805L152.989 49.5798L167.912 55.0445L161.551 69.6065L161.086 70.6705L162 71.3871Z" fill="#EF60A0" stroke="#1F1F1F" stroke-width="3"/>
</svg>
