<svg width="102" height="103" viewBox="0 0 102 103" fill="none" xmlns="http://www.w3.org/2000/svg">
<path d="M96.2217 32.8875L96.6564 31.892L95.6364 31.5184L87.4311 28.5134L88.2832 19.818L88.3892 18.7368L87.3035 18.6968L78.5717 18.3747L76.694 9.84104L76.4606 8.78016L75.4158 9.07752L67.0123 11.4693L62.5898 3.93382L62.0399 2.99694L61.1381 3.60266L53.885 8.47469L47.3503 2.67445L46.5378 1.95331L45.8674 2.80806L40.4751 9.68248L32.468 6.18553L31.4726 5.75079L31.099 6.77075L28.094 14.9752L19.3985 14.124L18.3174 14.0182L18.2773 15.1037L17.9552 23.8355L9.4216 25.7132L8.36073 25.9466L8.65808 26.9914L11.0499 35.3949L3.51439 39.8174L2.57751 40.3673L3.18323 41.2691L8.05525 48.5222L2.25502 55.0569L1.53388 55.8694L2.38862 56.5398L9.26305 61.9321L5.76609 69.9392L5.33135 70.9346L6.35132 71.3082L14.5558 74.3132L13.7046 83.0087L13.5987 84.0898L14.6843 84.1299L23.4161 84.452L25.2938 92.9856L25.5272 94.0466L26.5721 93.7491L34.9755 91.3565L39.398 98.8928L39.9478 99.8297L40.8496 99.224L48.1028 94.352L54.6375 100.152L55.4499 100.873L56.1204 100.019L61.5127 93.1442L69.5197 96.6411L70.5152 97.0759L70.8888 96.0559L73.8938 87.8505L82.5892 88.7026L83.6704 88.8086L83.7104 87.723L84.0325 78.9911L92.5662 77.1134L93.6272 76.88L93.3297 75.8351L90.937 67.4317L98.4733 63.0092L99.4103 62.4594L98.8045 61.5576L93.9325 54.3044L99.7328 47.7697L100.454 46.9573L99.5992 46.2868L92.7247 40.8945L96.2217 32.8875Z" fill="#EF60A0" stroke="#1F1F1F" stroke-width="2.04448"/>
</svg>
