<svg width="145" height="145" viewBox="0 0 145 145" fill="none" xmlns="http://www.w3.org/2000/svg">
<path d="M136.615 45.8214L137.193 44.4967L135.836 43.9996L124.105 39.7036L125.323 27.2724L125.464 25.8335L124.02 25.7802L111.536 25.3198L108.852 13.1199L108.541 11.7081L107.151 12.1038L95.1373 15.5232L88.8147 4.7503L88.083 3.50354L86.883 4.30961L76.5137 11.2748L67.1715 2.98261L66.0904 2.02295L65.1982 3.16041L57.4892 12.9882L46.0421 7.98892L44.7174 7.41039L44.2203 8.76772L39.9243 20.497L27.4929 19.2801L26.0542 19.1392L26.0009 20.5838L25.5405 33.067L13.3406 35.7514L11.9288 36.0621L12.3245 37.4524L15.7439 49.4662L4.971 55.7888L3.72424 56.5205L4.53031 57.7205L11.4955 68.0899L3.20331 77.432L2.24365 78.5131L3.38112 79.4054L13.209 87.1143L8.20963 98.5614L7.63109 99.8861L8.98842 100.383L20.7177 104.679L19.5008 117.111L19.3599 118.549L20.8045 118.603L33.2878 119.063L35.9721 131.263L36.2828 132.675L37.6732 132.279L49.6869 128.858L56.0095 139.632L56.7411 140.879L57.9412 140.073L68.3106 133.108L77.6527 141.4L78.7338 142.36L79.6261 141.222L87.335 131.395L98.7821 136.394L100.107 136.972L100.604 135.615L104.9 123.885L117.331 125.103L118.77 125.244L118.823 123.799L119.284 111.316L131.484 108.631L132.896 108.321L132.5 106.93L129.079 94.9166L139.853 88.5941L141.1 87.8624L140.294 86.6623L133.329 76.293L141.621 66.9508L142.581 65.8697L141.443 64.9774L131.615 57.2685L136.615 45.8214Z" fill="#EF60A0" stroke="#1F1F1F" stroke-width="2.72071"/>
</svg>
