<svg width="99" height="99" viewBox="0 0 99 99" fill="none" xmlns="http://www.w3.org/2000/svg">
<path d="M90.7427 39.877L97.7176 45.3488L91.8333 51.9782L91.4034 52.4625L91.7645 53.0001L96.7068 60.358L89.0618 64.8446L88.5032 65.1724L88.6805 65.7953L91.1074 74.3208L82.4495 76.2253L81.8169 76.3644L81.7931 77.0116L81.4671 85.8698L72.6449 85.0062L72.0004 84.9431L71.7777 85.5512L68.7295 93.8751L60.6069 90.3269L60.0134 90.0676L59.6136 90.5772L54.1418 97.552L47.5125 91.6677L47.0281 91.2378L46.4905 91.5989L39.1326 96.5412L34.6461 88.8962L34.3183 88.3377L33.6954 88.515L25.1698 90.9419L23.2654 82.2839L23.1262 81.6514L22.479 81.6275L13.6208 81.3016L14.4844 72.4793L14.5475 71.8348L13.9394 71.6121L5.61551 68.5639L9.16288 60.4409L9.42204 59.8475L8.91257 59.4478L1.93858 53.9763L7.8229 47.3469L8.25282 46.8626L7.89171 46.325L2.94943 38.9671L10.5944 34.4805L11.153 34.1527L10.9757 33.5298L8.54878 25.0042L17.2058 23.0995L17.8383 22.9604L17.8622 22.3132L18.189 13.4553L27.0113 14.3189L27.6558 14.382L27.8785 13.7739L30.9267 5.44997L39.0497 8.99735L39.6431 9.2565L40.0428 8.74704L45.5143 1.77304L52.1437 7.65737L52.628 8.08728L53.1657 7.72617L60.5235 2.78389L65.0101 10.4289L65.3379 10.9874L65.9608 10.8101L74.4864 8.38324L76.3911 17.0403L76.5303 17.6727L77.1774 17.6966L86.0354 18.0234L85.1717 26.8458L85.1086 27.4903L85.7167 27.713L94.0406 30.7612L90.4924 38.8838L90.2331 39.4773L90.7427 39.877Z" fill="#EF60A0" stroke="#1F1F1F" stroke-width="1.67339"/>
</svg>
